<?xml version="1.0" encoding="utf-8"?>
<!-- Generator: Adobe Illustrator 19.2.0, SVG Export Plug-In . SVG Version: 6.00 Build 0)  -->
<svg version="1.1" id="Слой_1" xmlns="http://www.w3.org/2000/svg" xmlns:xlink="http://www.w3.org/1999/xlink" x="0px" y="0px"
	 viewBox="0 0 70 70" style="enable-background:new 0 0 70 70;" xml:space="preserve">
<style type="text/css">
	.st0{fill:#EBEBEB;}
</style>
<path id="path-1" class="st0" d="M69.4,49.3c-1.4,1.7-4.7,3-4.7,3l-24.9,9v-6.6l18.3-6.5c2.1-0.7,2.4-1.8,0.7-2.4
	c-1.7-0.6-4.7-0.4-6.8,0.4l-12.2,4.3v-6.9l0.7-0.2c0,0,3.5-1.2,8.5-1.8c5-0.5,11,0.1,15.8,1.9C70.1,45.1,70.7,47.6,69.4,49.3z
	 M42.1,38.1V21.2c0-2-0.4-3.8-2.2-4.3c-1.4-0.5-2.3,0.9-2.3,2.8V62l-11.4-3.6V8c4.8,0.9,11.9,3,15.7,4.3c9.7,3.3,12.9,7.4,12.9,16.7
	C54.8,38.1,49.2,41.5,42.1,38.1z M5.2,54c-5.5-1.6-6.4-4.8-3.9-6.7c2.3-1.7,6.3-3,6.3-3l16.3-5.8v6.6l-11.8,4.2
	c-2.1,0.7-2.4,1.8-0.7,2.4c1.7,0.6,4.7,0.4,6.8-0.4l5.6-2v5.9c-0.4,0.1-0.8,0.1-1.1,0.2C17.2,56.3,11.2,55.9,5.2,54L5.2,54z"/>
</svg>
