<?xml version="1.0" encoding="utf-8"?>
<!-- Generator: Adobe Illustrator 19.2.0, SVG Export Plug-In . SVG Version: 6.00 Build 0)  -->
<svg version="1.1" id="Слой_1" xmlns="http://www.w3.org/2000/svg" xmlns:xlink="http://www.w3.org/1999/xlink" x="0px" y="0px"
	 viewBox="0 0 70 70" style="enable-background:new 0 0 70 70;" xml:space="preserve">
<style type="text/css">
	.st0{fill:#EBEBEB;}
</style>
<g>
	<path class="st0" d="M12.5,12.2L12.5,12.2L12.5,12.2C6.4,18.2,3,26.4,3,35c0,7,2.3,13.8,6.5,19.4c0,0.1,0.1,0.1,0.2,0.1
		c0.1,0,0.1-0.1,0-0.2c-2.4-7.5,10-25.8,16.5-33.5c0,0,0-0.1,0-0.1c0,0,0-0.1-0.1-0.1C15.4,9.8,12.5,12.3,12.5,12.2"/>
	<path class="st0" d="M57.5,12.2L57.5,12.2L57.5,12.2c6.1,6,9.6,14.2,9.5,22.8c0,7-2.3,13.8-6.5,19.4c0,0.1-0.1,0.1-0.2,0.1
		c-0.1,0-0.1-0.1,0-0.2c2.4-7.5-10-25.8-16.5-33.5c0,0,0-0.1,0-0.1c0,0,0-0.1,0.1-0.1C54.6,9.8,57.5,12.3,57.5,12.2"/>
	<path class="st0" d="M35,3c6.5,0,11.8,1.8,16.7,4.7c0.1,0,0.1,0.1,0.1,0.2c0,0.1-0.1,0.1-0.2,0.1c-6.2-1.3-15.6,4-16.5,4.5
		c0,0,0,0-0.1,0c0,0-0.1,0-0.1,0c-2.4-1.4-11.1-5.9-16.5-4.5c-0.1,0-0.1,0-0.2-0.1c0-0.1,0-0.1,0.1-0.2C23.2,4.8,28.6,3,35,3"/>
	<path class="st0" d="M35,28.7c0,0,0.1,0,0.1,0.1c9.6,7.3,26,25.3,21,30.4l0,0l0,0h0C50.2,64.2,42.7,67,35,67
		c-7.8,0-15.2-2.8-21.1-7.9l0,0l0,0c-5-5.1,11.4-23.1,21-30.4C34.9,28.7,35,28.7,35,28.7"/>
</g>
</svg>
