<?xml version="1.0" encoding="utf-8"?>
<!-- Generator: Adobe Illustrator 19.2.0, SVG Export Plug-In . SVG Version: 6.00 Build 0)  -->
<svg version="1.1" id="Слой_1" xmlns="http://www.w3.org/2000/svg" xmlns:xlink="http://www.w3.org/1999/xlink" x="0px" y="0px"
	 viewBox="0 0 70 70" style="enable-background:new 0 0 70 70;" xml:space="preserve">
<style type="text/css">
	.st0{fill:#161616;}
	.st1{fill:#FF057C;}
</style>
<rect class="st0" width="70" height="70"/>
<path class="st1" d="M56.5,35.3c-1.7-4.9-5.4-9.7-9.1-13.2c-1.2-1.1-2.8-2.4-4.4-2.5c-3.4-0.1-4.5,2.2-6.6,4.2
	c-3.2,2.9-6-1.8-9.1-1.9c-2.8-0.1-4.8,1.2-6.3,3.5c0,0,0,0.1-0.1,0.1c-0.1,0.1-0.1,0.2-0.2,0.3c-2.9,5.5-4,11.7-3.7,17.8
	c0.2,3.4,2.9,9.1,7.1,6c2-1.5,3.2-3.6,4.7-5.5c1.7-2.3,3.7-0.7,6.2-1c2.9-0.4,5.2-1.3,7.1-3.4c1.7-1.9,7.2,2,9.6,2.5
	C56.5,42.9,57.9,39.1,56.5,35.3z M49.9,38c-1.9-0.8-3.8-2-5.9-2.2c-1.4-0.1-2.5,0-3.7,1c-2.1,1.8-3.1,3.1-6.2,3.2
	c-2.9,0.1-4.8-1.4-7.1,1.2c-1.4,1.5-2.4,3.2-3.7,4.8c-2,2.6-2.6-1.4-2.7-3.1c-0.5-5.5,0.7-11.2,3.3-16.1c2.3-3.1,4.4-0.7,6.8,0.6
	c1.5,0.7,3.3,0.7,4.8,0.2c1.9-0.7,3.5-1.6,4.6-3.3c2.1-2.9,3.8-0.6,5.5,1c2.9,2.9,5.2,6.5,7,10.1c0.3,0.6,0.5,1.2,0.8,1.9
	C54.2,39.8,50.7,38.3,49.9,38z"/>
</svg>
