<?xml version="1.0" encoding="utf-8"?>
<!-- Generator: Adobe Illustrator 19.2.0, SVG Export Plug-In . SVG Version: 6.00 Build 0)  -->
<svg version="1.1" id="Слой_1" xmlns="http://www.w3.org/2000/svg" xmlns:xlink="http://www.w3.org/1999/xlink" x="0px" y="0px"
	 viewBox="0 0 19 19" style="enable-background:new 0 0 19 19;" xml:space="preserve">
<path d="M16,2.6c0.9,0,1.6,0.7,1.6,1.6v7.2c0,0.9-0.7,1.6-1.6,1.6H8.7H8.2l-0.4,0.3L4.4,16v-1.6l0-1.4H3c-0.9,0-1.6-0.7-1.6-1.6V4.2
	c0-0.9,0.7-1.6,1.6-1.6H16 M16,1.2H3c-1.7,0-3,1.3-3,3v7.2c0,1.6,1.3,3,3,3h0V19l5.7-4.6H16c1.7,0,3-1.4,3-3V4.2
	C19,2.5,17.7,1.2,16,1.2L16,1.2z"/>
</svg>
