<svg xmlns="http://www.w3.org/2000/svg" xmlns:xlink="http://www.w3.org/1999/xlink" width="117" height="91" viewBox="0 0 117 91"><defs><path id="7elta" d="M392.43 2481.42c7-1.23 23.1-12.84 28.15-7.23 5.7 6.33 12.51 8.99 20.86 10.04 7.29.91 13.13-3.77 18 2.91 4.19 5.75 7.82 11.98 13.62 16.25 12.29 9.06 20.14-7.6 20.74-17.68 1.08-18.2-2.13-36.38-10.72-52.52-.16-.3-.35-.58-.56-.84-.06-.08-.09-.17-.15-.26-4.55-6.82-10.24-10.6-18.52-10.3-9.11.34-17.35 13.99-26.58 5.52-6.26-5.74-9.43-12.7-19.28-12.3-4.92.22-9.62 4.2-13 7.41-10.83 10.33-21.54 24.52-26.54 38.84-3.98 11.39.08 22.61 13.98 20.16"/><path id="7eltb" d="M445.97 2452.06l15.15-12.62a.89.89 0 1 0-1.14-1.36l-19.66 16.38-19.65-16.38a.89.89 0 1 0-1.14 1.36l15.15 12.62-15.15 12.63a.89.89 0 1 0 1.14 1.36l15.4-12.83 3.69 3.07a.88.88 0 0 0 1.13 0l3.7-3.07 15.39 12.83a.88.88 0 0 0 1.25-.11.89.89 0 0 0-.11-1.25z"/></defs><g><g transform="translate(-377 -2415)"><use fill="#751d9a" xlink:href="#7elta"/></g><g clip-path="url(#clip-0C4E4E43-6DCD-4282-9800-0ED704792674)" transform="translate(-377 -2415)"><use fill="#fff" xlink:href="#7eltb"/></g></g></svg>