<svg xmlns="http://www.w3.org/2000/svg" xmlns:xlink="http://www.w3.org/1999/xlink" width="39" height="30" viewBox="0 0 39 30"><defs><path id="2dxja" d="M803.4 1390.72c-1.4-.13-2.48.03-3.57.95-2.04 1.74-3.01 3-6.07 3.08-2.81.1-4.67-1.3-6.96 1.19-1.33 1.45-2.36 3.14-3.58 4.7-1.98 2.53-2.51-1.38-2.65-3-.46-5.35.7-10.84 3.2-15.57 2.23-3.04 4.26-.63 6.6.55 1.42.72 3.19.69 4.67.18a8.7 8.7 0 0 0 4.51-3.16c2.02-2.82 3.74-.62 5.33.98 2.8 2.82 5.1 6.28 6.82 9.84.28.6.51 1.2.73 1.83.85 2.4-2.6.92-3.31.6-1.8-.81-3.7-1.98-5.72-2.17zm3.27-13.27c-1.13-1.06-2.7-2.38-4.33-2.44-3.29-.14-4.34 2.16-6.43 4.05-3.08 2.79-5.82-1.7-8.86-1.82-2.76-.1-4.66 1.15-6.17 3.4l-.05.08c-.07.09-.14.18-.19.28a32.22 32.22 0 0 0-3.57 17.31c.2 3.32 2.81 8.82 6.91 5.83 1.93-1.4 3.14-3.46 4.54-5.36 1.62-2.2 3.57-.66 6-.96 2.78-.34 5.05-1.22 6.95-3.3 1.69-1.86 7.05 1.97 9.39 2.38 4.63.8 5.98-2.9 4.66-6.65-1.67-4.72-5.24-9.4-8.85-12.8z"/></defs><g><g transform="translate(-777 -1375)"><use fill="#62b7ce" xlink:href="#2dxja"/></g></g></svg>