<svg xmlns="http://www.w3.org/2000/svg" xmlns:xlink="http://www.w3.org/1999/xlink" width="302" height="30" viewBox="0 0 302 30"><defs><path id="y610b" d="M91 5002.62v-11.74a3.76 3.76 0 0 1 1.14-2.75 3.97 3.97 0 0 1 2.8-1.13c.53 0 1.02.09 1.47.27.44.17.85.41 1.21.72.37.3.7.66.97 1.07.28.4.51.84.7 1.31l3.67 8.71 4.01-9.18c.35-.94.86-1.66 1.54-2.16.67-.5 1.49-.74 2.45-.74a3.79 3.79 0 0 1 2.94 1.32 4.75 4.75 0 0 1 1.1 3.02v11.28h-3.93v-11.49l-3.88 8.2c-.26.55-.52 1.05-.77 1.5-.25.44-.53.83-.84 1.15a3.33 3.33 0 0 1-2.56 1.02c-.52 0-1-.1-1.44-.32a4.43 4.43 0 0 1-1.16-.82 6.41 6.41 0 0 1-.93-1.18c-.28-.45-.53-.9-.75-1.37l-3.81-8.03v11.44z"/><path id="y610c" d="M138 4987v4.1h-18v1.84h18v4.12h-18v1.72h18v4.22h-16.48a5.83 5.83 0 0 1-3.84-1.43 5.14 5.14 0 0 1-1.22-1.62 4.67 4.67 0 0 1-.46-2.08v-5.77a4.7 4.7 0 0 1 1.63-3.76c.5-.43 1.08-.77 1.76-1 .67-.23 1.4-.34 2.17-.34z"/><path id="y610d" d="M163.93 4992.9v5.12a4.48 4.48 0 0 1-1.91 3.77c-.58.42-1.24.72-1.98.92-.73.2-1.48.29-2.25.29h-10.84c-.77 0-1.51-.11-2.22-.34a6.03 6.03 0 0 1-1.9-.98 4.67 4.67 0 0 1-1.83-3.8v-6.42c0-1.4.52-2.5 1.56-3.28 1.04-.79 2.48-1.18 4.33-1.18H164v4.05h-18.92v7.81h14.71v-1.8h-7.24v-4.16z"/><path id="y610e" d="M174.88 4994.74l2.12-3.4 2.1 3.4zm-4.78 8.26l2.46-4.18h8.83l2.68 4.18H189l-6.93-11.92c-.37-.64-.72-1.21-1.04-1.72-.32-.5-.67-.93-1.04-1.28a4.02 4.02 0 0 0-2.92-1.08 5 5 0 0 0-1.72.27c-.5.18-.93.45-1.32.8a6.7 6.7 0 0 0-1.07 1.25c-.33.5-.68 1.04-1.03 1.65L165 5003z"/><path id="y610f" d="M191 5002.62v-11.74a3.76 3.76 0 0 1 1.14-2.75 3.97 3.97 0 0 1 2.8-1.13c.53 0 1.02.09 1.47.27.44.17.85.41 1.21.72.37.3.7.66.97 1.07.28.4.51.84.7 1.31l3.67 8.7 4.01-9.17c.35-.94.86-1.66 1.54-2.16.67-.5 1.49-.74 2.45-.74a3.78 3.78 0 0 1 2.94 1.32 4.75 4.75 0 0 1 1.1 3.02v11.28h-3.93v-11.49l-3.88 8.2c-.26.55-.52 1.05-.77 1.5-.25.44-.53.83-.84 1.15a3.33 3.33 0 0 1-2.56 1.02c-.52 0-1-.1-1.44-.32a4.44 4.44 0 0 1-1.16-.83 6.44 6.44 0 0 1-.93-1.17c-.28-.45-.53-.9-.75-1.37l-3.81-8.03v11.44z"/><path id="y610a" d="M38 5010h252v-30H38z"/><path id="y610h" d="M221.04 4991.17h13.85v7.79h-13.85zm1.5-4.17a6.15 6.15 0 0 0-3.83 1.33c-.52.43-.93.93-1.24 1.51a4.02 4.02 0 0 0-.47 1.92v6.1c0 .75.13 1.43.38 2.06a4.7 4.7 0 0 0 2.62 2.7c.61.25 1.27.38 1.98.38h12.04c.65 0 1.28-.13 1.88-.4a5.35 5.35 0 0 0 2.69-2.6c.27-.6.41-1.23.41-1.9v-5.96a5.37 5.37 0 0 0-3.05-4.71 4.26 4.26 0 0 0-1.86-.43z"/><path id="y610i" d="M246.2 4991.03h14.54v8.02H246.2zM242 5003h17.39a6.17 6.17 0 0 0 3.9-1.41c.52-.45.94-.98 1.25-1.6.3-.6.46-1.28.46-2.02v-5.94c0-.75-.15-1.43-.45-2.05-.3-.61-.71-1.14-1.22-1.58a6.08 6.08 0 0 0-3.88-1.4H242z"/><path id="y610j" d="M287.53 4987.35c.51.23.95.54 1.3.94a4.53 4.53 0 0 1 .93 4.43 4.07 4.07 0 0 1-1.7 2.04c-.4.24-.84.41-1.32.51l-15.57 3.54h18.08v4.19h-18.47a5.13 5.13 0 0 1-3.27-1.18 4.55 4.55 0 0 1-1.1-1.37 4.2 4.2 0 0 1 .42-4.28 3.96 3.96 0 0 1 2.22-1.38l16.42-3.7h-18.83V4987h19.23c.59 0 1.15.12 1.66.35"/><path id="y610k" d="M64.4 4995.72c-1.4-.13-2.48.03-3.57.95-2.04 1.74-3.01 3-6.07 3.08-2.81.1-4.67-1.3-6.96 1.19-1.33 1.45-2.36 3.14-3.58 4.7-1.98 2.53-2.51-1.38-2.65-3-.46-5.35.7-10.84 3.2-15.57 2.23-3.04 4.26-.63 6.6.55 1.42.72 3.19.69 4.67.18a8.7 8.7 0 0 0 4.51-3.16c2.02-2.82 3.74-.62 5.33.98 2.8 2.82 5.1 6.28 6.82 9.84.28.6.51 1.2.73 1.83.85 2.4-2.6.92-3.31.6-1.8-.81-3.7-1.98-5.72-2.17zm3.27-13.27c-1.13-1.06-2.7-2.38-4.33-2.44-3.29-.14-4.34 2.16-6.43 4.05-3.08 2.79-5.82-1.7-8.86-1.82-2.76-.1-4.66 1.15-6.17 3.4l-.05.08c-.07.09-.14.18-.19.28a32.22 32.22 0 0 0-3.57 17.31c.2 3.32 2.81 8.82 6.91 5.83 1.93-1.4 3.14-3.46 4.54-5.36 1.62-2.2 3.57-.66 6-.96 2.78-.34 5.05-1.22 6.95-3.3 1.69-1.86 7.05 1.97 9.39 2.38 4.63.8 5.98-2.9 4.66-6.65-1.67-4.72-5.24-9.4-8.85-12.8z"/><path id="y610l" d="M308.76 4994.33c.48 0 .79.1.94.3.15.2.22.54.22 1.03v4.27c0 .52-.07.88-.22 1.06-.15.2-.46.29-.94.29h-5.59c-.47 0-.78-.1-.93-.29-.15-.18-.22-.54-.22-1.06v-5.6zm-6.74-7.2c0-.52.07-.87.22-1.05.15-.19.46-.28.93-.28h5.59c.48 0 .79.1.94.28.15.18.22.53.22 1.05v4.06c0 .25-.01.45-.04.6a.97.97 0 0 1-.16.4c-.09.13-.2.2-.36.26a2.1 2.1 0 0 1-.6.07h-6.74zm6.74 15.94c1.17 0 1.99-.24 2.46-.71.47-.48.71-1.28.71-2.43v-4.27c0-.56-.08-1.02-.23-1.37a2 2 0 0 0-.75-.87c.36-.22.62-.5.76-.85.15-.35.22-.81.22-1.38v-4.06c0-1.14-.24-1.95-.7-2.42-.48-.47-1.3-.71-2.47-.71h-5.59c-1.16 0-1.98.24-2.45.71-.48.47-.72 1.28-.72 2.42v12.8c0 1.15.24 1.95.72 2.43.47.47 1.3.7 2.45.7z"/><path id="y610m" d="M314 5003.07h1.9V4984H314z"/><path id="y610n" d="M324.14 4991.69c.36 0 .62.1.76.3.15.2.22.5.22.9v7.84c0 .4-.07.7-.22.9-.14.2-.4.3-.76.3h-4.26c-.36 0-.61-.1-.75-.3-.14-.19-.21-.5-.21-.9v-7.84c0-.41.07-.71.2-.9.15-.2.4-.3.76-.3zm-7.14 9.04c0 1.01.23 1.75.68 2.2.46.46 1.2.69 2.2.69h4.26c1.01 0 1.75-.23 2.2-.69.46-.45.69-1.19.69-2.2v-7.84c0-1.01-.23-1.75-.69-2.2-.45-.46-1.19-.69-2.2-.69h-4.26c-1 0-1.74.23-2.2.68-.45.46-.68 1.2-.68 2.21z"/><path id="y610o" d="M336.14 4991.69c.36 0 .62.1.76.3.15.2.22.5.22.9v9.04h-5.24c-.36 0-.61-.1-.75-.3-.14-.19-.21-.5-.21-.9v-7.84c0-.41.07-.71.2-.9.15-.2.4-.3.76-.3zm2.89 1.2c0-1.01-.23-1.75-.69-2.2-.45-.46-1.19-.69-2.2-.69h-4.26c-1 0-1.74.23-2.2.68-.45.46-.68 1.2-.68 2.21v7.84c0 1.01.23 1.75.68 2.2.46.46 1.2.69 2.2.69h5.24v2.57c0 .4-.07.7-.22.9-.14.19-.4.29-.76.29h-6.7v1.69h6.7c1.01 0 1.75-.23 2.2-.69.46-.45.69-1.19.69-2.2z"/><clipPath id="y610g"><use xlink:href="#y610a"/></clipPath></defs><g><g transform="translate(-38 -4980)"><g><g><use fill="#fffffe" xlink:href="#y610b"/></g><g><use fill="#fffffe" xlink:href="#y610c"/></g><g><use fill="#fffffe" xlink:href="#y610d"/></g><g><use fill="#fffffe" xlink:href="#y610e"/></g><g><use fill="#fffffe" xlink:href="#y610f"/></g><g/><g clip-path="url(#y610g)"><use fill="#fffffe" xlink:href="#y610h"/></g><g clip-path="url(#y610g)"><use fill="#fffffe" xlink:href="#y610i"/></g><g clip-path="url(#y610g)"><use fill="#fffffe" xlink:href="#y610j"/></g><g clip-path="url(#y610g)"><use fill="#62b7ce" xlink:href="#y610k"/></g></g><g><g><use fill="#fff" xlink:href="#y610l"/></g><g><use fill="#fff" xlink:href="#y610m"/></g><g><use fill="#fff" xlink:href="#y610n"/></g><g><use fill="#fff" xlink:href="#y610o"/></g></g></g></g></svg>