<svg xmlns="http://www.w3.org/2000/svg" width="32" height="32" viewBox="0 0 32 32">
  <g fill="none" fill-rule="evenodd" transform="matrix(-1 0 0 1 32 0)">
    <path fill="#FFFFFF" fill-rule="nonzero" d="M16,31 C24.2842712,31 31,24.2842712 31,16 C31,7.71572875 24.2842712,1 16,1 C7.71572875,1 1,7.71572875 1,16 C1,24.2842712 7.71572875,31 16,31 Z M16,32 C7.163444,32 0,24.836556 0,16 C0,7.163444 7.163444,0 16,0 C24.836556,0 32,7.163444 32,16 C32,24.836556 24.836556,32 16,32 Z"/>
    <g transform="translate(4 4)">
      <polygon points="0 0 24 0 24 24 0 24"/>
      <polygon fill="#FFFFFF" points="15.41 16.76 10.83 11.979 15.41 7.198 14 5.729 8 11.979 14 18.229"/>
    </g>
  </g>
</svg>
